<svg xmlns="http://www.w3.org/2000/svg" viewBox="0 0 640 800" role="img"
     aria-label="Обложка: Mario Kart 8 Deluxe">
  <defs>
    <linearGradient id="bg" x1="0" y1="0" x2="1" y2="1">
      <stop offset="0%" stop-color="#2f0a10"/>
      <stop offset="55%" stop-color="#2f0a10"/>
      <stop offset="100%" stop-color="#d02f2f" stop-opacity="0.40"/>
    </linearGradient>
    <linearGradient id="vignette" x1="0" y1="0" x2="0" y2="1">
      <stop offset="55%" stop-color="#000" stop-opacity="0"/>
      <stop offset="100%" stop-color="#000" stop-opacity="0.65"/>
    </linearGradient>
  </defs>
  <rect width="640" height="800" fill="url(#bg)"/><circle cx="448" cy="192" r="190" fill="#d02f2f" opacity="0.10"/><circle cx="448" cy="192" r="110" fill="#d02f2f" opacity="0.16"/><circle cx="448" cy="192" r="62" fill="#d02f2f" opacity="0.55"/><circle cx="448" cy="192" r="62" fill="none" stroke="#fff" stroke-width="2" opacity="0.30"/><rect y="416" width="640" height="384" fill="#000" opacity="0.42"/><polygon points="294,416 346,416 860,800 -220,800" fill="#d02f2f" opacity="0.16"/><rect x="317" y="428" width="6" height="13" fill="#fff" opacity="0.55"/><rect x="316" y="454" width="8" height="18" fill="#fff" opacity="0.55"/><rect x="314" y="491" width="11" height="25" fill="#fff" opacity="0.55"/><rect x="312" y="541" width="16" height="35" fill="#fff" opacity="0.55"/><rect x="309" y="610" width="22" height="48" fill="#fff" opacity="0.55"/><rect x="305" y="706" width="30" height="66" fill="#fff" opacity="0.55"/><rect x="0" y="436" width="640" height="2" fill="#d02f2f" opacity="0.06"/><rect x="0" y="444" width="640" height="3" fill="#d02f2f" opacity="0.08"/><rect x="0" y="468" width="640" height="4" fill="#d02f2f" opacity="0.10"/><rect x="0" y="508" width="640" height="5" fill="#d02f2f" opacity="0.12"/><rect x="0" y="564" width="640" height="6" fill="#d02f2f" opacity="0.14"/><rect x="0" y="636" width="640" height="7" fill="#d02f2f" opacity="0.16"/><rect x="0" y="724" width="640" height="8" fill="#d02f2f" opacity="0.18"/><polygon points="0,800 0,420 80,340 160,415 240,321 320,407 400,366 480,404 560,328 640,409 720,314 800,400 640,800" fill="#000" opacity="0.45"/>
  <rect width="640" height="800" fill="url(#vignette)"/>
  <text x="320.0" y="400.0" font-size="150" text-anchor="middle"
        dominant-baseline="central" opacity="0.95">🏎️</text>
</svg>
